<mxfile host="app.diagrams.net" modified="2023-06-10T17:59:31.582Z" agent="Mozilla/5.0 (Windows NT 10.0; Win64; x64) AppleWebKit/537.36 (KHTML, like Gecko) Chrome/113.0.0.0 Safari/537.36 OPR/99.0.0.0" etag="LjMSz8OaJPh8deV71fK1" version="21.3.7" type="device">
  <diagram name="Page-1" id="lZOU-qRwZ4GDVxaxGd4x">
    <mxGraphModel dx="819" dy="461" grid="1" gridSize="10" guides="1" tooltips="1" connect="1" arrows="1" fold="1" page="1" pageScale="1" pageWidth="827" pageHeight="1169" math="0" shadow="0">
      <root>
        <mxCell id="0" />
        <mxCell id="1" parent="0" />
        <mxCell id="tzqBZ0rh7alvdzZAN90n-1" value="" style="rounded=0;whiteSpace=wrap;html=1;dashed=1;fillColor=none;" vertex="1" parent="1">
          <mxGeometry x="200" y="240" width="430" height="390" as="geometry" />
        </mxCell>
        <mxCell id="tzqBZ0rh7alvdzZAN90n-2" value="&lt;b&gt;Knowledge sharing platform&lt;/b&gt;" style="text;html=1;align=center;verticalAlign=middle;resizable=0;points=[];autosize=1;strokeColor=none;fillColor=none;" vertex="1" parent="1">
          <mxGeometry x="319" y="210" width="190" height="30" as="geometry" />
        </mxCell>
        <mxCell id="tzqBZ0rh7alvdzZAN90n-22" style="rounded=0;orthogonalLoop=1;jettySize=auto;html=1;entryX=0;entryY=0.5;entryDx=0;entryDy=0;" edge="1" parent="1" source="tzqBZ0rh7alvdzZAN90n-3" target="tzqBZ0rh7alvdzZAN90n-7">
          <mxGeometry relative="1" as="geometry" />
        </mxCell>
        <mxCell id="tzqBZ0rh7alvdzZAN90n-3" value="Author" style="shape=umlActor;verticalLabelPosition=bottom;verticalAlign=top;html=1;outlineConnect=0;" vertex="1" parent="1">
          <mxGeometry x="110" y="310" width="30" height="60" as="geometry" />
        </mxCell>
        <mxCell id="tzqBZ0rh7alvdzZAN90n-14" style="rounded=0;orthogonalLoop=1;jettySize=auto;html=1;entryX=0;entryY=0.5;entryDx=0;entryDy=0;" edge="1" parent="1" source="tzqBZ0rh7alvdzZAN90n-4" target="tzqBZ0rh7alvdzZAN90n-8">
          <mxGeometry relative="1" as="geometry" />
        </mxCell>
        <mxCell id="tzqBZ0rh7alvdzZAN90n-33" style="rounded=0;orthogonalLoop=1;jettySize=auto;html=1;entryX=0;entryY=0.5;entryDx=0;entryDy=0;" edge="1" parent="1" source="tzqBZ0rh7alvdzZAN90n-4" target="tzqBZ0rh7alvdzZAN90n-31">
          <mxGeometry relative="1" as="geometry" />
        </mxCell>
        <mxCell id="tzqBZ0rh7alvdzZAN90n-4" value="Reader" style="shape=umlActor;verticalLabelPosition=bottom;verticalAlign=top;html=1;outlineConnect=0;" vertex="1" parent="1">
          <mxGeometry x="110" y="460" width="30" height="60" as="geometry" />
        </mxCell>
        <mxCell id="tzqBZ0rh7alvdzZAN90n-25" style="rounded=0;orthogonalLoop=1;jettySize=auto;html=1;entryX=1.008;entryY=0.414;entryDx=0;entryDy=0;entryPerimeter=0;" edge="1" parent="1" source="tzqBZ0rh7alvdzZAN90n-6" target="tzqBZ0rh7alvdzZAN90n-10">
          <mxGeometry relative="1" as="geometry" />
        </mxCell>
        <mxCell id="tzqBZ0rh7alvdzZAN90n-38" style="rounded=0;orthogonalLoop=1;jettySize=auto;html=1;entryX=1;entryY=0.5;entryDx=0;entryDy=0;" edge="1" parent="1" source="tzqBZ0rh7alvdzZAN90n-6" target="tzqBZ0rh7alvdzZAN90n-37">
          <mxGeometry relative="1" as="geometry" />
        </mxCell>
        <mxCell id="tzqBZ0rh7alvdzZAN90n-6" value="Admin" style="shape=umlActor;verticalLabelPosition=bottom;verticalAlign=top;html=1;outlineConnect=0;" vertex="1" parent="1">
          <mxGeometry x="690" y="300" width="30" height="60" as="geometry" />
        </mxCell>
        <mxCell id="tzqBZ0rh7alvdzZAN90n-23" style="rounded=0;orthogonalLoop=1;jettySize=auto;html=1;entryX=0;entryY=1;entryDx=0;entryDy=0;dashed=1;endArrow=none;endFill=0;" edge="1" parent="1" source="tzqBZ0rh7alvdzZAN90n-7" target="tzqBZ0rh7alvdzZAN90n-9">
          <mxGeometry relative="1" as="geometry" />
        </mxCell>
        <mxCell id="tzqBZ0rh7alvdzZAN90n-24" value="&amp;lt;&amp;lt;includes&amp;gt;&amp;gt;" style="edgeLabel;html=1;align=center;verticalAlign=middle;resizable=0;points=[];" vertex="1" connectable="0" parent="tzqBZ0rh7alvdzZAN90n-23">
          <mxGeometry x="-0.232" relative="1" as="geometry">
            <mxPoint x="2" y="-3" as="offset" />
          </mxGeometry>
        </mxCell>
        <mxCell id="tzqBZ0rh7alvdzZAN90n-35" style="rounded=0;orthogonalLoop=1;jettySize=auto;html=1;entryX=0.5;entryY=0;entryDx=0;entryDy=0;dashed=1;endArrow=none;endFill=0;" edge="1" parent="1" source="tzqBZ0rh7alvdzZAN90n-7" target="tzqBZ0rh7alvdzZAN90n-31">
          <mxGeometry relative="1" as="geometry" />
        </mxCell>
        <mxCell id="tzqBZ0rh7alvdzZAN90n-36" value="&amp;lt;&amp;lt;extends&amp;gt;&amp;gt;" style="edgeLabel;html=1;align=center;verticalAlign=middle;resizable=0;points=[];" vertex="1" connectable="0" parent="tzqBZ0rh7alvdzZAN90n-35">
          <mxGeometry x="-0.3635" y="-2" relative="1" as="geometry">
            <mxPoint x="1" y="4" as="offset" />
          </mxGeometry>
        </mxCell>
        <mxCell id="tzqBZ0rh7alvdzZAN90n-7" value="Create post" style="ellipse;whiteSpace=wrap;html=1;" vertex="1" parent="1">
          <mxGeometry x="274" y="340" width="86" height="50" as="geometry" />
        </mxCell>
        <mxCell id="tzqBZ0rh7alvdzZAN90n-15" style="rounded=0;orthogonalLoop=1;jettySize=auto;html=1;endArrow=none;endFill=0;dashed=1;" edge="1" parent="1" source="tzqBZ0rh7alvdzZAN90n-8" target="tzqBZ0rh7alvdzZAN90n-12">
          <mxGeometry relative="1" as="geometry" />
        </mxCell>
        <mxCell id="tzqBZ0rh7alvdzZAN90n-16" value="&amp;lt;&amp;lt;includes&amp;gt;&amp;gt;" style="edgeLabel;html=1;align=center;verticalAlign=middle;resizable=0;points=[];" vertex="1" connectable="0" parent="tzqBZ0rh7alvdzZAN90n-15">
          <mxGeometry x="0.1929" y="2" relative="1" as="geometry">
            <mxPoint as="offset" />
          </mxGeometry>
        </mxCell>
        <mxCell id="tzqBZ0rh7alvdzZAN90n-17" style="rounded=0;orthogonalLoop=1;jettySize=auto;html=1;entryX=0;entryY=0.5;entryDx=0;entryDy=0;endArrow=none;endFill=0;dashed=1;" edge="1" parent="1" source="tzqBZ0rh7alvdzZAN90n-8" target="tzqBZ0rh7alvdzZAN90n-13">
          <mxGeometry relative="1" as="geometry" />
        </mxCell>
        <mxCell id="tzqBZ0rh7alvdzZAN90n-18" value="&amp;lt;&amp;lt;includes&amp;gt;&amp;gt;" style="edgeLabel;html=1;align=center;verticalAlign=middle;resizable=0;points=[];rotation=0;" vertex="1" connectable="0" parent="tzqBZ0rh7alvdzZAN90n-17">
          <mxGeometry x="-0.149" y="1" relative="1" as="geometry">
            <mxPoint x="9" y="-1" as="offset" />
          </mxGeometry>
        </mxCell>
        <mxCell id="tzqBZ0rh7alvdzZAN90n-8" value="Search post" style="ellipse;whiteSpace=wrap;html=1;" vertex="1" parent="1">
          <mxGeometry x="269" y="530" width="91" height="50" as="geometry" />
        </mxCell>
        <mxCell id="tzqBZ0rh7alvdzZAN90n-9" value="Delete post" style="ellipse;whiteSpace=wrap;html=1;" vertex="1" parent="1">
          <mxGeometry x="380" y="270" width="86" height="50" as="geometry" />
        </mxCell>
        <mxCell id="tzqBZ0rh7alvdzZAN90n-10" value="Make admin" style="ellipse;whiteSpace=wrap;html=1;" vertex="1" parent="1">
          <mxGeometry x="466" y="350" width="86" height="50" as="geometry" />
        </mxCell>
        <mxCell id="tzqBZ0rh7alvdzZAN90n-12" value="Like Post" style="ellipse;whiteSpace=wrap;html=1;" vertex="1" parent="1">
          <mxGeometry x="440" y="560" width="91" height="50" as="geometry" />
        </mxCell>
        <mxCell id="tzqBZ0rh7alvdzZAN90n-13" value="Comment" style="ellipse;whiteSpace=wrap;html=1;" vertex="1" parent="1">
          <mxGeometry x="451" y="480" width="91" height="50" as="geometry" />
        </mxCell>
        <mxCell id="tzqBZ0rh7alvdzZAN90n-26" style="rounded=0;orthogonalLoop=1;jettySize=auto;html=1;entryX=1;entryY=1;entryDx=0;entryDy=0;dashed=1;endArrow=none;endFill=0;exitX=0.284;exitY=0.003;exitDx=0;exitDy=0;exitPerimeter=0;" edge="1" parent="1" source="tzqBZ0rh7alvdzZAN90n-10" target="tzqBZ0rh7alvdzZAN90n-9">
          <mxGeometry relative="1" as="geometry">
            <mxPoint x="440" y="360" as="sourcePoint" />
            <mxPoint x="487" y="327" as="targetPoint" />
          </mxGeometry>
        </mxCell>
        <mxCell id="tzqBZ0rh7alvdzZAN90n-27" value="&amp;lt;&amp;lt;extends&amp;gt;&amp;gt;" style="edgeLabel;html=1;align=center;verticalAlign=middle;resizable=0;points=[];" vertex="1" connectable="0" parent="tzqBZ0rh7alvdzZAN90n-26">
          <mxGeometry x="-0.232" relative="1" as="geometry">
            <mxPoint x="2" y="-3" as="offset" />
          </mxGeometry>
        </mxCell>
        <mxCell id="tzqBZ0rh7alvdzZAN90n-31" value="Like Tag" style="ellipse;whiteSpace=wrap;html=1;" vertex="1" parent="1">
          <mxGeometry x="269" y="440" width="91" height="50" as="geometry" />
        </mxCell>
        <mxCell id="tzqBZ0rh7alvdzZAN90n-37" value="Delete tag" style="ellipse;whiteSpace=wrap;html=1;" vertex="1" parent="1">
          <mxGeometry x="466" y="410" width="86" height="50" as="geometry" />
        </mxCell>
      </root>
    </mxGraphModel>
  </diagram>
</mxfile>
